<?xml version="1.0" encoding="UTF-8" standalone="no"?>
<!-- Generator: Adobe Illustrator 19.0.0, SVG Export Plug-In . SVG Version: 6.00 Build 0)  -->

<svg
   xmlns:dc="http://purl.org/dc/elements/1.1/"
   xmlns:cc="http://creativecommons.org/ns#"
   xmlns:rdf="http://www.w3.org/1999/02/22-rdf-syntax-ns#"
   xmlns:svg="http://www.w3.org/2000/svg"
   xmlns="http://www.w3.org/2000/svg"
   xmlns:sodipodi="http://sodipodi.sourceforge.net/DTD/sodipodi-0.dtd"
   xmlns:inkscape="http://www.inkscape.org/namespaces/inkscape"
   version="1.1"
   id="Capa_1"
   x="0px"
   y="0px"
   viewBox="0 0 51.997 51.997"
   style="enable-background:new 0 0 51.997 51.997;"
   xml:space="preserve"
   inkscape:version="0.48.5 r10040"
   width="100%"
   height="100%"
   sodipodi:docname="like-on.svg"><metadata
   id="metadata43"><rdf:RDF><cc:Work
       rdf:about=""><dc:format>image/svg+xml</dc:format><dc:type
         rdf:resource="http://purl.org/dc/dcmitype/StillImage" /><dc:title></dc:title></cc:Work></rdf:RDF></metadata><defs
   id="defs41" /><sodipodi:namedview
   pagecolor="#ffffff"
   bordercolor="#666666"
   borderopacity="1"
   objecttolerance="10"
   gridtolerance="10"
   guidetolerance="10"
   inkscape:pageopacity="0"
   inkscape:pageshadow="2"
   inkscape:window-width="2498"
   inkscape:window-height="1417"
   id="namedview39"
   showgrid="false"
   inkscape:zoom="4.5387234"
   inkscape:cx="-11.897619"
   inkscape:cy="25.9985"
   inkscape:window-x="54"
   inkscape:window-y="-8"
   inkscape:window-maximized="1"
   inkscape:current-layer="g3" />
<g
   id="g3">
	<path
   d="M51.911,16.242C51.152,7.888,45.239,1.827,37.839,1.827c-4.93,0-9.444,2.653-11.984,6.905   c-2.517-4.307-6.846-6.906-11.697-6.906c-7.399,0-13.313,6.061-14.071,14.415c-0.06,0.369-0.306,2.311,0.442,5.478   c1.078,4.568,3.568,8.723,7.199,12.013l18.115,16.439l18.426-16.438c3.631-3.291,6.121-7.445,7.199-12.014   C52.216,18.553,51.97,16.611,51.911,16.242z M49.521,21.261c-0.984,4.172-3.265,7.973-6.59,10.985L25.855,47.481L9.072,32.25   c-3.331-3.018-5.611-6.818-6.596-10.99c-0.708-2.997-0.417-4.69-0.416-4.701l0.015-0.101C2.725,9.139,7.806,3.826,14.158,3.826   c4.687,0,8.813,2.88,10.771,7.515l0.921,2.183l0.921-2.183c1.927-4.564,6.271-7.514,11.069-7.514   c6.351,0,11.433,5.313,12.096,12.727C49.938,16.57,50.229,18.264,49.521,21.261z"
   id="path5" />
	<path
   d="M15.999,7.904c-5.514,0-10,4.486-10,10c0,0.553,0.447,1,1,1s1-0.447,1-1c0-4.411,3.589-8,8-8c0.553,0,1-0.447,1-1   S16.551,7.904,15.999,7.904z"
   id="path7" />
<path
   style="fill:#ff373a;fill-opacity:0.62844038;stroke:#000000;stroke-width:0.49793737999999999;stroke-miterlimit:4;stroke-opacity:1;stroke-dasharray:none"
   d="M 17.031221,39.307203 C 12.184043,34.907476 7.6941549,30.683225 7.0536925,29.919977 4.7443383,27.167886 3.1986655,24.020537 2.5084853,20.664876 2.0772516,18.568215 2.0670518,17.042153 2.470265,14.946487 3.9404393,7.3053806 10.237482,2.6215662 16.765877,4.3132431 c 3.691119,0.9564652 6.218299,3.2582448 8.206121,7.4742129 0.750936,1.592658 0.966604,1.896208 1.095779,1.542283 1.75008,-4.7949792 4.915248,-7.93854 9.079619,-9.0176368 6.906204,-1.7895775 13.480688,3.4919808 14.572739,11.7068928 0.66511,5.003266 -1.901627,11.267709 -6.400917,15.622237 -0.76512,0.740506 -4.216813,3.858321 -7.670427,6.928481 -3.453615,3.070161 -7.072474,6.291959 -8.041909,7.159551 l -1.76261,1.577439 -8.813051,-7.9995 0,0 z M 7.8436153,18.683668 c 0.1454153,-0.145416 0.2643915,-0.582743 0.2643915,-0.971839 0,-1.172332 0.7787989,-3.302106 1.6330083,-4.465772 C 11.053302,11.458365 12.800842,10.518741 15.814149,9.9806309 16.627609,9.835365 16.839078,9.694357 17.021505,9.1755607 17.21176,8.6345011 17.170785,8.4883941 16.728305,8.130096 16.180556,7.6865557 15.427037,7.7022411 13.395837,8.1994662 9.9961851,9.0316793 7.1202687,11.948962 6.2610139,15.436915 c -0.6323098,2.56672 -0.431823,3.511144 0.7453615,3.511144 0.3150666,0 0.6918245,-0.118976 0.8372399,-0.264391 z"
   id="path3790"
   inkscape:connector-curvature="0" /></g>
<g
   id="g9">
</g>
<g
   id="g11">
</g>
<g
   id="g13">
</g>
<g
   id="g15">
</g>
<g
   id="g17">
</g>
<g
   id="g19">
</g>
<g
   id="g21">
</g>
<g
   id="g23">
</g>
<g
   id="g25">
</g>
<g
   id="g27">
</g>
<g
   id="g29">
</g>
<g
   id="g31">
</g>
<g
   id="g33">
</g>
<g
   id="g35">
</g>
<g
   id="g37">
</g>
</svg>