<?xml version="1.0" encoding="UTF-8" standalone="no"?>
<!-- Generator: Adobe Illustrator 19.1.0, SVG Export Plug-In . SVG Version: 6.00 Build 0)  -->

<svg
   xmlns:dc="http://purl.org/dc/elements/1.1/"
   xmlns:cc="http://creativecommons.org/ns#"
   xmlns:rdf="http://www.w3.org/1999/02/22-rdf-syntax-ns#"
   xmlns:svg="http://www.w3.org/2000/svg"
   xmlns="http://www.w3.org/2000/svg"
   xmlns:sodipodi="http://sodipodi.sourceforge.net/DTD/sodipodi-0.dtd"
   xmlns:inkscape="http://www.inkscape.org/namespaces/inkscape"
   version="1.1"
   id="Capa_1"
   x="0px"
   y="0px"
   viewBox="0 0 47.834 47.834"
   style="enable-background:new 0 0 47.834 47.834;"
   xml:space="preserve"
   inkscape:version="0.48.5 r10040"
   width="100%"
   height="100%"
   sodipodi:docname="notification-on.svg"><metadata
   id="metadata3188"><rdf:RDF><cc:Work
       rdf:about=""><dc:format>image/svg+xml</dc:format><dc:type
         rdf:resource="http://purl.org/dc/dcmitype/StillImage" /><dc:title></dc:title></cc:Work></rdf:RDF></metadata><defs
   id="defs3186" /><sodipodi:namedview
   pagecolor="#ffffff"
   bordercolor="#666666"
   borderopacity="1"
   objecttolerance="10"
   gridtolerance="10"
   guidetolerance="10"
   inkscape:pageopacity="0"
   inkscape:pageshadow="2"
   inkscape:window-width="2498"
   inkscape:window-height="1417"
   id="namedview3184"
   showgrid="false"
   inkscape:zoom="19.734917"
   inkscape:cx="36.512832"
   inkscape:cy="20.536242"
   inkscape:window-x="54"
   inkscape:window-y="-8"
   inkscape:window-maximized="1"
   inkscape:current-layer="Capa_1" />
<g
   id="g3132">
	<g
   id="g3134">
		<path
   d="M46.878,41.834H0.956l0.005-1.005c0.021-4.065,2.87-7.548,6.759-8.437V20.697C7.72,11.766,14.985,4.5,23.916,4.5    c8.932,0,16.198,7.266,16.198,16.197v11.695c3.889,0.89,6.737,4.372,6.759,8.437L46.878,41.834z M3.042,39.834h41.75    c-0.458-2.908-2.804-5.241-5.8-5.61l-0.878-0.107V20.697c0-7.828-6.369-14.197-14.198-14.197C16.088,6.5,9.72,12.869,9.72,20.697    v13.419l-0.878,0.107C5.845,34.592,3.5,36.925,3.042,39.834z"
   id="path3136" />
	</g>
	<g
   id="g3138">
		<path
   d="M21.125,5.988h-2V4.792C19.125,2.149,21.274,0,23.917,0c2.642,0,4.791,2.149,4.791,4.792v1.176h-2V4.792    C26.708,3.253,25.456,2,23.917,2c-1.539,0-2.792,1.253-2.792,2.792V5.988z"
   id="path3140" />
	</g>
	<g
   id="g3142">
		<path
   d="M23.903,47.834c-3.941,0-7.375-2.799-8.164-6.656l1.959-0.4c0.6,2.93,3.209,5.057,6.205,5.057    c3.058,0,5.677-2.179,6.228-5.18l1.967,0.361C31.373,44.967,27.927,47.834,23.903,47.834z"
   id="path3144" />
	</g>
	<g
   id="g3146">
		<rect
   x="8.72"
   y="32.231"
   width="3.682"
   height="2"
   id="rect3148" />
	</g>
	<g
   id="g3150">
		<rect
   x="18.167"
   y="32.231"
   width="20.947"
   height="2"
   id="rect3152" />
	</g>
</g>
<g
   id="g3154">
</g>
<g
   id="g3156">
</g>
<g
   id="g3158">
</g>
<g
   id="g3160">
</g>
<g
   id="g3162">
</g>
<g
   id="g3164">
</g>
<g
   id="g3166">
</g>
<g
   id="g3168">
</g>
<g
   id="g3170">
</g>
<g
   id="g3172">
</g>
<g
   id="g3174">
</g>
<g
   id="g3176">
</g>
<g
   id="g3178">
</g>
<g
   id="g3180">
</g>
<g
   id="g3182">
</g>
<path
   sodipodi:type="arc"
   style="fill:#1875f0;fill-opacity:1;stroke:#ffffff;stroke-opacity:1;stroke-width:1.36116704;stroke-miterlimit:4;stroke-dasharray:none"
   id="path3190"
   sodipodi:cx="37.192963"
   sodipodi:cy="11.046411"
   sodipodi:rx="4.5604448"
   sodipodi:ry="4.5604448"
   d="m 41.753407,11.046411 a 4.5604448,4.5604448 0 1 1 -9.120889,0 4.5604448,4.5604448 0 1 1 9.120889,0 z"
   transform="matrix(1.6164903,0,0,1.7053791,-22.523727,-6.8291472)" /></svg>