<?xml version="1.0" encoding="UTF-8" standalone="no"?>
<svg
   xmlns:dc="http://purl.org/dc/elements/1.1/"
   xmlns:cc="http://creativecommons.org/ns#"
   xmlns:rdf="http://www.w3.org/1999/02/22-rdf-syntax-ns#"
   xmlns:svg="http://www.w3.org/2000/svg"
   xmlns="http://www.w3.org/2000/svg"
   xmlns:sodipodi="http://sodipodi.sourceforge.net/DTD/sodipodi-0.dtd"
   xmlns:inkscape="http://www.inkscape.org/namespaces/inkscape"
   enable-background="new 0 0 24 24"
   height="15.5"
   id="Layer_1"
   version="1.1"
   viewBox="0 0 15.599999 15.5"
   width="15.599999"
   xml:space="preserve"
   inkscape:version="0.48.5 r10040"
   sodipodi:docname="share.svg"><metadata
     id="metadata19"><rdf:RDF><cc:Work
         rdf:about=""><dc:format>image/svg+xml</dc:format><dc:type
           rdf:resource="http://purl.org/dc/dcmitype/StillImage" /><dc:title></dc:title></cc:Work></rdf:RDF></metadata><defs
     id="defs17" /><sodipodi:namedview
     pagecolor="#ffffff"
     bordercolor="#666666"
     borderopacity="1"
     objecttolerance="10"
     gridtolerance="10"
     guidetolerance="10"
     inkscape:pageopacity="0"
     inkscape:pageshadow="2"
     inkscape:window-width="949"
     inkscape:window-height="480"
     id="namedview15"
     showgrid="false"
     inkscape:zoom="9.8333333"
     inkscape:cx="39.783051"
     inkscape:cy="7.8516946"
     inkscape:window-x="3428"
     inkscape:window-y="451"
     inkscape:window-maximized="0"
     inkscape:current-layer="g3"
     fit-margin-top="0"
     fit-margin-left="0"
     fit-margin-right="0"
     fit-margin-bottom="0" /><g
     id="g3"
     transform="translate(-0.33559323,-0.28389826)"><path
       inkscape:connector-curvature="0"
       d="m 12.835593,15.783898 c -1.6,0 -2.9999998,-1.3 -2.9999998,-2.9 l -4.7,-2.3 c -0.5,0.4 -1.1,0.5 -1.7,0.5 -1.6999999,0 -3.09999997,-1.3999997 -3.09999997,-2.9999997 0,-1.7 1.40000007,-3.1 3.09999997,-3.1 0.6,0 1.2,0.2 1.7,0.5 l 4.6000001,-2.3 c 0.1,-1.6 1.3999997,-2.90000004 2.9999997,-2.90000004 1.7,0 3.1,1.40000004 3.1,3.10000004 0,1.7 -1.4,3.1 -3.1,3.1 -0.6,0 -1.2,-0.2 -1.7,-0.5 l -4.1999997,2.1 4.2999997,2.1999997 c 0.5,-0.2999997 1.1,-0.4999997 1.7,-0.4999997 1.7,0 3.1,1.3999997 3.1,3.0999997 -0.1,1.6 -1.4,2.9 -3.1,2.9 z M 5.1355932,9.4838983 c 0.1000001,0 0.2000001,0 0.2000001,0.1 l 5.1999997,2.5999997 c 0.2,0.1 0.3,0.3 0.3,0.5 0,0 0,0.1 0,0.1 0,1.1 0.9,2 2.1,2 1.1,0 2.1,-0.9 2.1,-2.1 0,-1.1 -0.9,-2.1 -2.1,-2.1 -0.6,0 -1,0.3 -1.3,0.5 -0.2,0.1 -0.4,0.2 -0.5,0.1 L 5.9355933,8.5838983 c -0.2,-0.1 -0.3,-0.3 -0.3,-0.5 0,0 0,-0.1 0,-0.1 0,0 0,-0.1 0,-0.2 0,-0.2 0.1,-0.4 0.3,-0.5 l 5.1999997,-2.6 c 0.2,-0.1 0.4,-0.1 0.5,0.1 0.3,0.2 0.7,0.5 1.3,0.5 1.1,0 2.1,-0.9 2.1,-2.1 0,-1.1 -0.9,-2.1 -2.1,-2.1 -1.1,0 -2.1,0.9 -2.1,2.1 0,0.2 -0.1,0.5 -0.3,0.6 l -5.1999997,2.6 c -0.2000001,0.1 -0.4000001,0.1 -0.5000001,-0.1 -0.3,-0.2 -0.7,-0.5 -1.3,-0.5 -1.0999999,0 -2.0999999,0.9 -2.0999999,2.1 0,1.1 0.9,2 2.0999999,2 0.6,0 1,-0.3 1.3,-0.5 0,0.2 0.1,0.1 0.3,0.1 z"
       id="path13" /></g></svg>