<?xml version="1.0" encoding="UTF-8" standalone="no"?>
<svg
   xmlns:dc="http://purl.org/dc/elements/1.1/"
   xmlns:cc="http://creativecommons.org/ns#"
   xmlns:rdf="http://www.w3.org/1999/02/22-rdf-syntax-ns#"
   xmlns:svg="http://www.w3.org/2000/svg"
   xmlns="http://www.w3.org/2000/svg"
   xmlns:sodipodi="http://sodipodi.sourceforge.net/DTD/sodipodi-0.dtd"
   xmlns:inkscape="http://www.inkscape.org/namespaces/inkscape"
   enable-background="new 0 0 24 24"
   height="15.5"
   id="Layer_1"
   version="1.1"
   viewBox="0 0 15.599999 15.5"
   width="15.599999"
   xml:space="preserve"
   inkscape:version="0.48.5 r10040"
   sodipodi:docname="share.svg"><metadata
     id="metadata19"><rdf:RDF><cc:Work
         rdf:about=""><dc:format>image/svg+xml</dc:format><dc:type
           rdf:resource="http://purl.org/dc/dcmitype/StillImage" /><dc:title></dc:title></cc:Work></rdf:RDF></metadata><defs
     id="defs17" /><sodipodi:namedview
     pagecolor="#ffffff"
     bordercolor="#666666"
     borderopacity="1"
     objecttolerance="10"
     gridtolerance="10"
     guidetolerance="10"
     inkscape:pageopacity="0"
     inkscape:pageshadow="2"
     inkscape:window-width="2498"
     inkscape:window-height="1417"
     id="namedview15"
     showgrid="false"
     inkscape:zoom="9.8333333"
     inkscape:cx="39.783051"
     inkscape:cy="7.8516946"
     inkscape:window-x="54"
     inkscape:window-y="-8"
     inkscape:window-maximized="1"
     inkscape:current-layer="g3"
     fit-margin-top="0"
     fit-margin-left="0"
     fit-margin-right="0"
     fit-margin-bottom="0" /><g
     id="g3"
     transform="translate(-0.33559323,-0.28389826)"><path
       inkscape:connector-curvature="0"
       d="m 12.835593,15.783898 c -1.6,0 -2.9999998,-1.3 -2.9999998,-2.9 l -4.7,-2.3 c -0.5,0.4 -1.1,0.5 -1.7,0.5 -1.6999999,0 -3.09999997,-1.3999997 -3.09999997,-2.9999997 0,-1.7 1.40000007,-3.1 3.09999997,-3.1 0.6,0 1.2,0.2 1.7,0.5 l 4.6000001,-2.3 c 0.1,-1.6 1.3999997,-2.90000004 2.9999997,-2.90000004 1.7,0 3.1,1.40000004 3.1,3.10000004 0,1.7 -1.4,3.1 -3.1,3.1 -0.6,0 -1.2,-0.2 -1.7,-0.5 l -4.1999997,2.1 4.2999997,2.1999997 c 0.5,-0.2999997 1.1,-0.4999997 1.7,-0.4999997 1.7,0 3.1,1.3999997 3.1,3.0999997 -0.1,1.6 -1.4,2.9 -3.1,2.9 z M 5.1355932,9.4838983 c 0.1000001,0 0.2000001,0 0.2000001,0.1 l 5.1999997,2.5999997 c 0.2,0.1 0.3,0.3 0.3,0.5 0,0 0,0.1 0,0.1 0,1.1 0.9,2 2.1,2 1.1,0 2.1,-0.9 2.1,-2.1 0,-1.1 -0.9,-2.1 -2.1,-2.1 -0.6,0 -1,0.3 -1.3,0.5 -0.2,0.1 -0.4,0.2 -0.5,0.1 L 5.9355933,8.5838983 c -0.2,-0.1 -0.3,-0.3 -0.3,-0.5 0,0 0,-0.1 0,-0.1 0,0 0,-0.1 0,-0.2 0,-0.2 0.1,-0.4 0.3,-0.5 l 5.1999997,-2.6 c 0.2,-0.1 0.4,-0.1 0.5,0.1 0.3,0.2 0.7,0.5 1.3,0.5 1.1,0 2.1,-0.9 2.1,-2.1 0,-1.1 -0.9,-2.1 -2.1,-2.1 -1.1,0 -2.1,0.9 -2.1,2.1 0,0.2 -0.1,0.5 -0.3,0.6 l -5.1999997,2.6 c -0.2000001,0.1 -0.4000001,0.1 -0.5000001,-0.1 -0.3,-0.2 -0.7,-0.5 -1.3,-0.5 -1.0999999,0 -2.0999999,0.9 -2.0999999,2.1 0,1.1 0.9,2 2.0999999,2 0.6,0 1,-0.3 1.3,-0.5 0,0.2 0.1,0.1 0.3,0.1 z"
       id="path13" /><path
       style="fill:#008080;fill-opacity:0.62844047;stroke:#000000;stroke-width:0.2298305;stroke-miterlimit:4;stroke-opacity:1;stroke-dasharray:none"
       d="M 11.706546,14.214345 C 11.082406,13.923749 10.667623,13.369567 10.58427,12.7149 10.553495,12.473188 10.486691,12.194471 10.435818,12.095528 10.337692,11.904684 5.2195728,9.2770091 4.7184499,9.1601947 4.5114983,9.1119531 4.3013395,9.1549936 4.0149411,9.3042728 2.8333956,9.9201287 1.3300275,9.1131941 1.2215343,7.8049083 1.1650814,7.1241604 1.317601,6.6563955 1.7361857,6.2265148 2.5283388,5.4129847 3.5006987,5.3862459 4.5804833,6.1482998 4.7311685,6.2546453 5.168642,6.0687185 7.5141867,4.901472 9.0303221,4.1469761 10.334952,3.4393941 10.413364,3.3290675 c 0.07841,-0.1103267 0.143573,-0.3391403 0.144802,-0.5084746 0.0056,-0.7666221 0.742958,-1.6740574 1.533308,-1.88687642 1.558708,-0.41971642 2.998511,1.23233152 2.374859,2.72494192 -0.31632,0.7570604 -1.030834,1.2438843 -1.825655,1.2438843 -0.444978,0 -1.182775,-0.2831493 -1.321136,-0.5070214 -0.03506,-0.056732 -0.152912,-0.1031481 -0.26189,-0.1031481 -0.238887,0 -5.3870796,2.5609046 -5.6235309,2.797356 -0.1808384,0.1808383 -0.2222784,0.7740877 -0.073227,1.0483126 0.051203,0.094204 1.3265502,0.7854015 2.8341042,1.5359939 l 2.7410067,1.3647133 0.619357,-0.32234 c 0.964901,-0.502177 1.879734,-0.391967 2.529615,0.304744 0.471074,0.505019 0.674336,1.44374 0.44387,2.049913 -0.154431,0.406182 -0.737831,1.002341 -1.175432,1.20114 -0.552429,0.250962 -1.018771,0.234578 -1.646869,-0.05786 l 0,0 z"
       id="path2983"
       inkscape:connector-curvature="0"
       transform="translate(0.33559302,0.28389826)" /></g></svg>